<svg xmlns="http://www.w3.org/2000/svg" id="uuid-b74f4ceb-09c3-42e6-a89c-bad3b342d52c" width="348.50007" height="53.90002" viewBox="0 0 348.50007 53.90002"><defs><style>.uuid-fa001e61-2682-48ec-950e-e0d4ce742030{fill:#eb3b45;}.uuid-e5386829-f542-4246-9ab5-86bfe7b117be{fill:#fff;}</style></defs><path class="uuid-fa001e61-2682-48ec-950e-e0d4ce742030" d="m56.19995,18.20001C56.19995,8.20001,48.1001,0,38,0h-19.80005C8.19995,0,0,8.20001,0,18.20001c0,3.20001.80005,6.09998,2.19995,8.70001-1.3999,2.59998-2.19995,5.59998-2.19995,8.79999,0,10,8.19995,18.20001,18.19995,18.20001h19.80005c10,0,18.19995-8.20001,18.19995-18.20001,0-3.20001-.7998-6.10004-2.19995-8.70001,1.40015-2.70001,2.19995-5.59998,2.19995-8.79999ZM18.19995,6.09998h1.90015v11.40002h-1.90015c-4.3999,0-8.5,1.59998-11.69995,4.20001-.30005-1.10004-.5-2.20001-.5-3.40002.1001-6.79999,5.5-12.20001,12.19995-12.20001Zm2,41.80005h-1.8999c-6.80005-.10004-12.19995-5.5-12.19995-12.20001,0-1.20001.19995-2.29999.5-3.40002,3.19995,2.60004,7.19995,4.20001,11.69995,4.20001h1.8999v11.40002Zm9.90015-14.60004v14.40002l-3.5.09998h-.40015v-14.39996c0-1.70001-1.3999-3-3-3h-4.8999c-3.30005,0-6.30005-1.30005-8.5-3.40002,2.19995-2.09998,5.19995-3.40002,8.5-3.40002h4.8999c1.7002,0,3-1.39996,3-3V6.09998h3.90015v14.40002c0,1.70001,1.3999,3,3,3h4.8999c3.30005,0,6.30005,1.29999,8.5,3.40002-2.19995,2.09998-5.19995,3.39996-8.5,3.39996h-4.8999c-1.69995,0-3,1.40002-3,3Zm7.8999,14.5h-1.8999v-11.29999h1.8999c4.40015,0,8.5-1.59998,11.69995-4.20001.30005,1.10004.5,2.20001.5,3.40002,0,6.70001-5.5,12.09998-12.19995,12.09998Zm11.69995-26.20001c-3.19995-2.59998-7.19995-4.19995-11.69995-4.19995h-1.8999V6.09998h1.8999c6.69995,0,12.19995,5.40002,12.19995,12.10004,0,1.20001-.19995,2.29999-.5,3.39996Z"></path><path class="uuid-e5386829-f542-4246-9ab5-86bfe7b117be" d="m85.60007,49.30002V6.30002h16.1c9.9,0,16.1,3.2,16.1,11.2,0,3.3-.9,6.7-5.1,8.5,6.1,2.1,8,5.5,8,10.3,0,8.5-6.1,12.9-16,12.9l-19.1.1h0Zm7.9-36.6v11h8.3c5.1,0,8-1.1,8-5.5,0-4.2-2.9-5.5-8-5.5h-8.3Zm0,17v13.2h11.3c5,0,8.1-2.1,8.1-6.5,0-4.6-3.1-6.7-8.1-6.7h-11.3Z"></path><path class="uuid-e5386829-f542-4246-9ab5-86bfe7b117be" d="m150.80008,6.30002c10.10001,0,16,3.2,16,12.8,0,5.5-2.3,10.4-8.7,12.1l4.10001,7.4c1.5,2.6,3,6,6.8,5.6v5.6c-1.2.1-2.3.2-3.3.2-4.7,0-7.2-2.7-9.3-6.5l-6.60001-11.7h-9.39999v17.5h-7.89999V6.30002h18.29999Zm-10.40001,6.4v12.7h10.39999c5,0,8.10001-1.2,8.10001-6.4,0-5.1-3.10001-6.3-8.10001-6.3,0,0-10.39999,0-10.39999,0Z"></path><path class="uuid-e5386829-f542-4246-9ab5-86bfe7b117be" d="m213.70007,49.30002l-5.3-12.1h-18l-5.3,12.1h-8.09999l18.7-42.9h8l18.5,42.9s-8.5,0-8.5,0Zm-20.8-18.2h12.89999l-6.39999-15.8-6.5,15.8Z"></path><polygon class="uuid-e5386829-f542-4246-9ab5-86bfe7b117be" points="228.70007 6.30002 240.90007 38.70002 254.40007 6.30002 262.30006 6.30002 244.00007 49.30002 237.00007 49.30002 220.30008 6.30002 228.70007 6.30002"></polygon><polygon class="uuid-e5386829-f542-4246-9ab5-86bfe7b117be" points="293.40007 30.80002 278.50007 30.80002 278.50007 42.90002 300.60008 42.90002 300.60008 49.30002 270.60008 49.30002 270.60008 6.30002 300.40007 6.30002 300.40007 12.70002 278.50007 12.70002 278.50007 24.80002 293.40007 24.80002 293.40007 30.80002"></polygon><polygon class="uuid-e5386829-f542-4246-9ab5-86bfe7b117be" points="311.00007 49.30002 311.00007 6.30002 319.20009 6.30002 340.70009 37.40002 340.70009 6.30002 348.50007 6.30002 348.50007 49.30002 340.30006 49.30002 318.90007 18.20002 318.90007 49.30002 311.00007 49.30002"></polygon></svg>